<!-- Generated by IcoMoon.io -->
<svg version="1.1" xmlns="http://www.w3.org/2000/svg" width="1024" height="1024" viewBox="0 0 1024 1024">
<title></title>
<g id="icomoon-ignore">
</g>
<path fill="#000" d="M347 1017.4c0-4.8 0-9.4 0-14 0-215.4 0-430.6 0-646 0-6-0.4-10.8 8.4-10.8 63.6 0.4 127.4 0.2 191 0.2 1.6 0 3.2 0.4 5.8 0.8 0 28 0 55.6 0 83.4 0.8 0.2 1.4 0.6 2.2 0.8 8-10.4 15.6-21.2 24-31.4 24.4-30 55-52 91-65.2 19.6-7.2 41-11.6 61.6-12.6 28.4-1.2 57.4-0.8 85.4 4 46 7.8 86.6 28.2 120.2 61.6 31.8 31.4 52.8 69.2 64.2 111.8 6 22.6 9.8 45.8 13.4 68.8 2.4 16 3.6 32.4 3.6 48.4 0.2 130 0.2 260 0.2 390 0 3.2-0.2 6.4-0.4 10.6-3.8 0-7 0-10.2 0-61.4 0-122.6-0.2-184 0.2-10.2 0-12-3.4-12-12.6 0.2-119.6 0.6-239.4-0.2-359-0.2-21-2.2-42.8-7.6-63-9.8-35.4-32.2-61-67.8-74-30-11-60.4-13-91.2-5.2-34 8.6-57.4 31.2-75 61-13.6 23-16.2 48.4-16.4 73.8-0.8 121.4-0.4 242.6-0.4 364 0 4.6 0 9.2 0 14.2-69 0.2-136.8 0.2-205.8 0.2z"></path>
<path fill="#000" d="M218.2 685.2c0 106.6-0.2 213.2 0.2 319.8 0 9.6-2 13.2-12.6 13-61-0.6-122-0.6-183 0-10 0-12.2-3.4-12.2-12.6 0.2-214.2 0.2-428.6 0-642.8 0-8.6 2.4-11.6 11.2-11.6 61.6 0.4 123.2 0.4 185 0 9.6 0 11.4 3.6 11.4 12.2 0 107.4 0 214.8 0 322z"></path>
<path fill="#000" d="M112.2 9.6c65.8-1.6 105.2 46.2 105.4 104.8 0.2 60-41.8 104.8-107.8 104.6-61.4 0-104.8-44-104.6-106.2 0.2-58.2 42.4-105.2 107-103.2z"></path>
</svg>
