<!-- Generated by IcoMoon.io -->
<svg version="1.1" xmlns="http://www.w3.org/2000/svg" width="1024" height="1024" viewBox="0 0 1024 1024">
<title></title>
<g id="icomoon-ignore">
</g>
<path d="M535.948 159.381c-237.832-21.471-436.852 176.723-415.381 415.381 16.516 182.503 163.51 329.497 346.013 346.013 237.832 21.471 436.852-177.548 415.381-415.381-16.516-183.329-163.51-330.323-346.013-346.013zM752.31 350.968c36.335 48.723 58.632 107.355 62.761 171.768 0 4.129-3.303 6.606-7.432 5.781-70.194-14.039-136.258-16.516-198.194-7.432-2.477 0-4.955-0.826-5.781-3.303-7.432-17.342-14.039-33.032-21.471-48.723-1.652-3.303 0-6.606 2.477-7.432 57.806-26.426 112.31-61.935 159.381-109.832 2.477-3.303 6.606-3.303 8.258-0.826zM696.155 302.245c-42.116 42.942-90.013 75.148-143.69 99.097-2.477 1.652-5.781 0-7.432-2.477-37.161-68.542-74.323-122.219-102.4-159.381-2.477-3.303-0.826-8.258 3.303-9.084 18.168-3.303 36.335-4.955 55.329-4.955 73.497 0 141.213 25.6 194.89 67.716 2.477 2.477 2.477 6.606 0 9.084zM370.787 258.477c26.426 32.206 67.716 86.71 109.832 161.858 1.652 3.303 0 7.432-3.303 8.258-80.929 23.123-171.768 33.858-273.342 37.987-4.129 0-6.606-3.303-5.781-7.432 23.123-88.361 84.232-161.858 165.161-201.497 2.477-1.652 5.781-0.826 7.432 0.826zM193.239 535.123c109.006-3.303 218.013-14.039 317.935-45.419 2.477-0.826 5.781 0 6.606 3.303 5.781 12.387 11.561 25.6 18.168 38.813 1.652 3.303 0 6.606-3.303 8.258-99.097 32.206-187.458 97.445-266.735 197.368-2.477 2.477-6.606 3.303-9.084 0.826-44.594-47.897-67.716-119.742-69.368-195.716 0-4.955 2.477-7.432 5.781-7.432zM313.806 784.516c72.671-93.316 152.774-153.6 243.613-181.677 3.303-0.826 6.606 0.826 7.432 3.303 23.123 65.239 42.942 138.735 55.329 218.839 0.826 2.477-0.826 5.781-3.303 6.606-35.51 14.039-75.148 22.297-115.613 22.297-69.368 0-133.781-23.123-185.806-61.11-3.303-2.477-3.303-5.781-1.652-8.258zM682.942 785.342c-13.213-69.368-30.555-132.955-50.374-191.587-0.826-3.303 0.826-7.432 4.955-7.432 52.026-5.781 107.355-1.652 166.813 11.561 3.303 0.826 4.955 4.129 4.955 7.432-15.69 74.323-57.806 139.561-116.439 184.155-4.129 2.477-9.91 0-9.91-4.129z"></path>
</svg>
