<!-- Generated by IcoMoon.io -->
<svg version="1.1" xmlns="http://www.w3.org/2000/svg" width="1024" height="1024" viewBox="0 0 1024 1024">
<title></title>
<g id="icomoon-ignore">
</g>
<path d="M37.8 816.6c1.2-50.8 20.6-97.4 54.8-138.4 36.8-44.2 84-72 139-86.8 22.2-6 44.8-10.4 68-9.6 6.2 0.2 9.6-0.4 6.4-8-10.6-24.6-12.4-50.2-8-76.4 1-5.8-1.2-7.2-6.8-7.6-78.2-6.2-133.4-46.6-169.2-114.8-21.8-41.2-31.2-85.6-29.2-132 2-48 18-91.8 46.2-130.8 22.6-31.4 50.8-56.8 84.8-75.4 31.2-17 64.2-28.4 99.6-28.8 86-0.6 172.2 0 258.6 0 11.2 0 17.8 5.4 21.8 15.6s1 19-6 25.6c-19.2 17.4-39 34.2-59 50.8-5.8 5-13.6 2.4-20.4 2.6-7 0-10.4 0.6-5.4 8.6 22 34.8 31.8 73.4 35.2 114 3.2 36.4 0.2 71.8-12.6 106-12.4 33.4-31.8 62.6-57 88-15 15.2-33.4 27.8-43.4 47.8-7.4 14.8-7.8 28.8 1.6 43.4 15.6 24.4 35.8 44.4 57.6 63 50.4 42.6 82 95.2 87.6 162.2 3.4 41.2 4 81.8-10.4 121.2-19.2 52.8-53.4 93.6-101.8 122.4-42.6 25.4-88.8 37.4-138.4 39.4-61.2 2.4-120.2-6.6-175.6-32.6-49-23-88.6-56.2-108.4-108.8-6.6-18.4-9.6-37.8-9.6-60.6zM321.4 924.4c30.8-0.4 61.2-3.8 89.6-16.4 23.4-10.4 42.4-26 54.6-49 11.2-21.2 14.2-44.2 14.2-67.6 0-24.2-6.6-46.4-23.8-64.8-16.2-17.4-34.8-31.6-52.6-47-10.8-9.4-22-17.4-36.4-19.2-16.8-2.2-33.4-4.4-50.6-3-45.4 4-83.8 21-115.4 54.2-46.2 48.6-39.8 116.2-1.2 161.4 31.8 37.2 73.6 52 121.6 51.4zM420.4 292.2c0-45.4-9.4-84.8-29.2-122.2-13.8-26-31.8-48.2-57.8-63.2-29.4-17-64.4-10.6-85 16.2-11.6 15-18.6 32.2-22.4 50.6-7.8 38.6-6.2 77 4.8 114.6 12 41 30.4 78.8 64.8 106.4 15.2 12.2 32.4 20 52.2 18.4 29.4-2.4 46.2-21.6 57.4-46.4 11.4-24.6 16.4-50.6 15.2-74.4z"></path>
<path d="M746.2 329c0-26 0-52 0-78 0-15.4 7-23.2 22-25.4 11.2-1.8 22.6-1.6 33.8-0.6 18.8 1.6 25.4 9.6 25.6 28.6 0 43.4 0 86.6 0 130 0 7.6 0.6 15.4-0.2 23-0.8 9 2 12 11.4 11.8 41.4-0.6 82.6-0.2 124-0.2 19.8 0 28.4 8.6 28.6 28.6 0 13.4 0 26.6 0 40-0.2 18.6-8.6 27-26.8 27.2-42 0-84 0.2-126-0.2-8.6 0-11.4 2-11.4 11 0.4 51.4 0.2 102.6 0.2 154 0 9.6-1.6 18.6-10.2 24.8-0.8 0.6-1.6 1.6-2.4 1.8-19.6 3.4-39.6 6.2-58.6-1.8-8.2-3.4-10.4-12.8-10.4-22.2 0.2-51.6-0.2-103.4 0.2-155 0-9.6-2.6-12.6-12.4-12.6-41.6 0.4-83.4 0.2-125 0.2-18.2 0-26.4-8-26.6-26-0.2-14.4-0.2-28.6 0-43 0.4-18.8 8.4-26.6 27-26.8 42 0 84-0.2 126 0.2 8 0 11-1.8 10.8-10.4 0-26.4 0.4-52.6 0.4-79z"></path>
</svg>
