<!-- Generated by IcoMoon.io -->
<svg version="1.1" xmlns="http://www.w3.org/2000/svg" width="1024" height="1024" viewBox="0 0 1024 1024">
<title></title>
<g id="icomoon-ignore">
</g>
<path d="M990.912 247.024c-33.584 14.88-69.696 24.8-107.792 29.488 38.736-22.992 68.528-59.664 82.512-102.992-36.24 21.248-76.384 36.848-119.104 45.072-34.112-36.16-82.768-58.592-136.672-58.592-103.552 0-187.472 83.2-187.472 185.776 0 14.512 1.696 28.656 4.896 42.384-155.776-7.824-293.936-81.872-386.368-194.256-16.24 27.456-25.376 59.616-25.376 93.552 0 64.496 33.024 121.264 83.376 154.72-30.736-0.944-59.664-9.488-84.992-23.2 0 0.56 0 1.392 0 2.176 0 90.128 64.64 165.168 150.32 182.256-15.664 4.288-32.208 6.672-49.264 6.672-12.112 0-23.904-1.376-35.328-3.424 23.856 73.648 93.072 127.488 175.072 129.072-64.16 49.744-144.96 79.536-232.832 79.536-15.184 0-30.016-0.864-44.688-2.64 82.992 52.56 181.568 83.376 287.376 83.376 344.784 0 533.392-283.136 533.392-528.752 0-8.048-0.256-16.064-0.64-23.984 36.816-25.984 68.528-58.784 93.584-96.24z"></path>
</svg>
