<!-- Generated by IcoMoon.io -->
<svg version="1.1" xmlns="http://www.w3.org/2000/svg" width="1024" height="1024" viewBox="0 0 1024 1024">
<title></title>
<g id="icomoon-ignore">
</g>
<path d="M639.040 706.272c-54.192 40.112 114.32-132.208 66.368-66.704 1.2-0.096-1.024 3.536-8.48 12.64 0 0 128.064 127.2 190.928 191.936 21.824 23.6-17.552 70.704-44.304 46.112-56.928-55.232-191.632-192.496-191.84-192.72l-12.672 8.736z"></path>
<path d="M450.864 770.592c82.4-0.8 163.968-34.928 222.624-92.896 69.664-68.848 105.536-170.704 93.024-267.952-21.44-166.64-158.432-279.728-317.696-279.728-121.008 0-238.608 75.696-290.192 185.456-39.488 84.032-39.568 185.488 0 269.664 51.216 108.992 166.896 184.288 288.128 185.456 1.376 0 2.752 0 4.112 0zM447.088 717.2c-123.056-1.184-237.872-96.352-260.704-218.368-16.096-86.016 14.288-179.104 77.584-240.192 73.888-71.344 190.032-95.232 286.608-54.8 86.4 36.176 151.072 120.176 162.992 212.72 10.208 79.328-18.256 162.464-74.192 219.728-49.072 50.24-117.888 80.224-188.848 80.912-1.152 0-2.288 0-3.44 0z"></path>
</svg>
